<svg id="Layer_1" data-name="Layer 1" xmlns="http://www.w3.org/2000/svg" viewBox="0 0 903.78 269.99"><path d="M13.28,73Q0,60.81,0,44q0-16.68,13.28-29C21.94,7.11,32.44,3.19,44.69,3.19A48.3,48.3,0,0,1,66.53,8.34,41,41,0,0,1,82.9,22.66L68.79,32.75C63.85,24.61,54.68,20,44.69,20a28.25,28.25,0,0,0-19.25,7,21.85,21.85,0,0,0-7.93,17c0,6.59,2.67,12.26,7.93,17a28.39,28.39,0,0,0,19.25,7C54.68,68,64,63.13,69,54.89l14.21,9.78A42.09,42.09,0,0,1,66.83,79.4a46.9,46.9,0,0,1-22.14,5.35A45.58,45.58,0,0,1,13.28,73Z"/><path d="M162.29,84.34l-24.61-28H119.35v28H101.84V3.6h52.42a26.21,26.21,0,0,1,19,7.73A25.16,25.16,0,0,1,181.14,30a24.83,24.83,0,0,1-6.38,16.89,25.78,25.78,0,0,1-16.07,8.54l25.44,28.94ZM119.35,40.16h33.06c6.9,0,11.22-4.63,11.22-10.5s-4.32-10.51-11.22-10.51H119.35Z"/><path d="M219.55,70.44l-7.31,13.9H192.88L236.13,0l44.69,84.34H261.26l-7.62-13.9Zm16.78-37.28L225,57.15l22.86-.1Z"/><path d="M312.23,53.45V84.34H294.72V3.6h76.93V19.88H312.23V37.69h40.16V53.45Z"/><path d="M417,84.34V20.18H385V3.6h81.26V20.18H434.47V84.34Z"/><path d="M559.07,68V84.34H482.76V3.6h76.31V20h-58.8V36.15h39.64V51.7H500.27V68Z"/><path d="M620.24,84.34H579.66V3.6h40.58a39.33,39.33,0,0,1,28.83,11.85A38.9,38.9,0,0,1,661,44,38.9,38.9,0,0,1,649.07,72.5,39.32,39.32,0,0,1,620.24,84.34ZM597.17,20.18V67.76h23.07a22.19,22.19,0,0,0,16.47-7A22.93,22.93,0,0,0,643.61,44a22.73,22.73,0,0,0-6.9-16.78,22.16,22.16,0,0,0-16.47-7Z"/><path d="M4.12,205.44V124.7H56.74a24,24,0,0,1,17.51,7.11A23.28,23.28,0,0,1,81.56,149c0,5.25-2.47,11.43-5.77,14a16.88,16.88,0,0,1,6.8,7.52,22.1,22.1,0,0,1,2.78,10.61,23.45,23.45,0,0,1-7.31,17.2,24,24,0,0,1-17.4,7.1Zm17.51-47.88H55.82a8.56,8.56,0,0,0,0-17.1H21.63Zm0,32.13H59.42A8.81,8.81,0,0,0,68,181.14a8.4,8.4,0,0,0-8.55-8.55H21.63Z"/><path d="M122.85,191.54l-7.31,13.9H96.18l43.25-84.34,44.7,84.34H164.56l-7.62-13.9Zm16.79-37.28-11.33,24,22.86-.1Z"/><path d="M223.77,205.44V141.28H191.85V124.7H273.1v16.58H241.28v64.16Z"/><path d="M307.08,173.31v32.13H289.57V124.7h17.51v32h46.45v-32h17.4v80.74h-17.4V173.31Z"/><path d="M454,205.44l-24.61-28H411.09v28H393.58V124.7H446A26.21,26.21,0,0,1,465,132.43a25.16,25.16,0,0,1,7.93,18.64A24.79,24.79,0,0,1,466.49,168a25.73,25.73,0,0,1-16.06,8.54l25.43,28.94Zm-42.94-44.18h33.06c6.9,0,11.22-4.63,11.22-10.5s-4.32-10.51-11.22-10.51H411.09Z"/><path d="M533.94,205.85c-12.25,0-22.86-3.91-31.61-11.84s-13.08-17.51-13.08-28.94,4.43-21,13.18-28.94,19.26-11.84,31.51-11.84a45.34,45.34,0,0,1,31.51,12c8.76,7.93,13.19,17.5,13.19,28.83s-4.43,21-13.19,28.94S546.2,205.85,533.94,205.85Zm27.19-40.78a21.87,21.87,0,0,0-7.93-17,30,30,0,0,0-38.51,0,21.84,21.84,0,0,0-7.93,17c0,6.59,2.67,12.26,7.93,17a28.37,28.37,0,0,0,19.25,7,28,28,0,0,0,19.16-7Q561.13,175,561.13,165.07Z"/><path d="M637.74,205.85c-12.25,0-22.86-3.91-31.61-11.84s-13.08-17.51-13.08-28.94,4.43-21,13.18-28.94,19.26-11.84,31.51-11.84a45.38,45.38,0,0,1,31.52,12c8.75,7.93,13.18,17.5,13.18,28.83s-4.43,21-13.18,28.94S650,205.85,637.74,205.85Zm27.19-40.78a21.87,21.87,0,0,0-7.93-17,30,30,0,0,0-38.51,0,21.84,21.84,0,0,0-7.93,17c0,6.59,2.67,12.26,7.93,17a28.39,28.39,0,0,0,19.25,7,28,28,0,0,0,19.16-7Q664.93,175,664.93,165.07Z"/><path d="M716,205.34l-17.1.2,11-83.72L753,172.49l43-50.67,10.92,83.62h-17.1l-5.76-45-31.1,36-31.21-36Z"/><path d="M864.3,206.88a63,63,0,0,1-24.41-4.94c-7.83-3.4-12.77-7.83-14.93-13.28l13.7-8.35c4.63,6.18,15.24,10.1,26.05,10.1,7.31,0,13.18-1,17.51-3,3-1.54,4.53-3.5,4.42-6.08s-1.44-4.42-4.22-5.66c-2.57-1-8.24-2.06-17.09-3.19-12-1.24-20-2.68-24-4.33-9.57-4-14.21-10.4-13.69-19.26,0-9.26,4.63-16.16,14-20.8,6.7-3.19,15.14-4.73,25.44-4.73,18.23,0,30.38,6.07,34.81,17.71l-15,7.93c-3-6.9-10.09-10.3-21.11-10.3a42.6,42.6,0,0,0-14.11,2.37c-4.43,1.54-6.69,3.81-6.8,6.69-.1,5.36,3.81,7.21,13.19,8.76,2.06.3,4.73.61,7.93.92l6.79.72c7.93.93,13.7,2.17,17.3,3.61,9.58,3.91,14.21,10.4,13.7,19.56v1a20.38,20.38,0,0,1-6.08,14,32.75,32.75,0,0,1-14.31,8.13A71.74,71.74,0,0,1,864.3,206.88Z"/><path d="M13.49,269.62,4.12,245.07h4l6,15.65,7.75-15.09,7.84,15.06,5.9-15.62h4l-9.27,24.55-8.44-15.84Z"/><path d="M50.45,259.19v10.37H46.7V245.07h3.75v10.37h16.9V245.07H71.1v24.49H67.35V259.19Z"/><path d="M103.18,265.81v3.75H80.38V245.07h22.8v3.75H84.13v6.62H97v3.75H84.13v6.62Z"/><path d="M131.3,269.56l-8.78-9.06h-6.93v9.06h-3.75V245.07h16a7.79,7.79,0,0,1,7.72,7.71,7.4,7.4,0,0,1-2.28,5.5,8,8,0,0,1-5.72,2.22l8.75,9.06Zm-15.71-12.81h12.24a3.71,3.71,0,0,0,2.78-1.16,3.91,3.91,0,0,0,0-5.62,3.74,3.74,0,0,0-2.78-1.15H115.59Z"/><path d="M166.82,265.81v3.75H144V245.07h22.8v3.75h-19v6.62h12.87v3.75H147.77v6.62Z"/><path d="M205,269.56H192.88V245.07H205a12.25,12.25,0,0,1,0,24.49Zm-8.4-20.74v17H205a8.5,8.5,0,0,0,0-17Z"/><path d="M244.46,269.56l-8.78-9.06h-6.93v9.06H225V245.07h16a7.79,7.79,0,0,1,7.72,7.71,7.4,7.4,0,0,1-2.28,5.5,8,8,0,0,1-5.72,2.22l8.75,9.06Zm-15.71-12.81H241a3.72,3.72,0,0,0,2.78-1.16,3.91,3.91,0,0,0,0-5.62,3.75,3.75,0,0,0-2.78-1.15H228.75Z"/><path d="M280,265.81v3.75h-22.8V245.07H280v3.75H260.93v6.62h12.86v3.75H260.93v6.62Z"/><path d="M292.73,264.9l-2.37,4.66h-4.22L298.7,244l13,25.52h-4.25L305,264.9Zm6-12.74-4.37,9.15h8.87Z"/><path d="M321.6,269.53l-3.75,0,3.25-25.33,13.49,16.64,13.53-16.64,3.21,25.33h-3.75l-2.09-16.21-10.9,13.36-10.9-13.36Z"/><path d="M370.83,270a19.43,19.43,0,0,1-6.93-1.25,9.08,9.08,0,0,1-4.69-3.49l3.22-2a5.77,5.77,0,0,0,3.25,2.12,16,16,0,0,0,5.28.91,14.1,14.1,0,0,0,6.09-1.06c1.31-.66,2-1.5,1.94-2.6a2.68,2.68,0,0,0-1.94-2.43,9.5,9.5,0,0,0-2.91-.69c-.53-.09-2.09-.28-2.87-.37a27.75,27.75,0,0,1-7.46-1.32c-2.69-1.09-4-3-3.91-5.68a6.4,6.4,0,0,1,4.06-6.09,18,18,0,0,1,7.75-1.44q7.82,0,10.12,4.59L378.52,251c-.88-1.78-3.19-2.65-6.94-2.65a17.78,17.78,0,0,0-5.21.72c-1.63.46-2.75,1.4-2.78,2.65,0,2.22,1.47,2.87,5.06,3.47.65.09,1.53.18,2.62.28.53,0,1.25.12,2.16.25a20.68,20.68,0,0,1,5.31,1.09,5.52,5.52,0,0,1,3.9,5.69,1.68,1.68,0,0,0,0,.43C382.42,268,376.83,270,370.83,270Z"/><path d="M411.67,269.53l-3.75,0,3.25-25.33,13.49,16.64,13.53-16.64,3.21,25.33h-3.74l-2.1-16.21-10.9,13.36-10.9-13.36Z"/><path d="M472.87,265.81v3.75h-22.8V245.07h22.8v3.75H453.81v6.62h12.87v3.75H453.81v6.62Z"/><path d="M504.33,265.81v3.75h-22.8V245.07h22.8v3.75H485.27v6.62h12.87v3.75H485.27v6.62Z"/><path d="M521.42,269.56V248.82H511.11v-3.75h24.36v3.75h-10.3v20.74Z"/><path d="M563.07,266.06a11.5,11.5,0,0,1,0-17.49A14.4,14.4,0,0,1,584,250.82l-3.09,2.12a10.65,10.65,0,0,0-15.27-1.62,7.73,7.73,0,0,0,0,12,10.65,10.65,0,0,0,15.27-1.62l3.09,2.12a14.4,14.4,0,0,1-20.92,2.25Z"/><path d="M611.49,269.56l-8.78-9.06h-6.93v9.06H592V245.07h16a7.73,7.73,0,0,1,5.43,13.21,7.92,7.92,0,0,1-5.71,2.22l8.74,9.06Zm-15.71-12.81H608a3.72,3.72,0,0,0,2.78-1.16,3.91,3.91,0,0,0,0-5.62,3.75,3.75,0,0,0-2.78-1.15H595.78Z"/><path d="M628.3,264.9l-2.38,4.66h-4.21L634.26,244l13,25.52H643l-2.47-4.66Zm6-12.74L630,261.31h8.87Z"/><path d="M657.79,259.19v10.37H654V245.07h22.84v3.75H657.79v6.62h12.87v3.75Z"/><path d="M693.66,269.56V248.82H683.35v-3.75h24.36v3.75H697.4v20.74Z"/></svg>