<svg id="Layer_1" data-name="Layer 1" xmlns="http://www.w3.org/2000/svg" viewBox="0 0 911.6 208.67"><path d="M13.4,73.64Q0,61.34,0,44.35,0,27.52,13.4,15.06C22.12,7.17,32.72,3.22,45.08,3.22a48.83,48.83,0,0,1,22,5.19A41.35,41.35,0,0,1,83.61,22.85L69.38,33c-5-8.21-14.23-12.88-24.3-12.88a28.48,28.48,0,0,0-19.42,7.06c-5.3,4.68-8,10.39-8,17.14s2.7,12.36,8,17.14a28.68,28.68,0,0,0,19.42,7.06c10.07,0,19.42-4.88,24.51-13.19l14.33,9.87A42.31,42.31,0,0,1,67.41,80.08a47.22,47.22,0,0,1-22.33,5.4C32.82,85.48,22.23,81.54,13.4,73.64Z"/><path d="M163.7,85.07,138.87,56.81H120.38V85.07H102.73V3.63h52.86a26.46,26.46,0,0,1,19.12,7.79,25.4,25.4,0,0,1,8,18.8,25,25,0,0,1-6.44,17,25.92,25.92,0,0,1-16.2,8.62l25.66,29.19ZM120.38,40.51h33.35c7,0,11.32-4.68,11.32-10.6s-4.37-10.59-11.32-10.59H120.38Z"/><path d="M221.45,71l-7.38,14H194.55L238.17,0l45.08,85.07H263.51l-7.68-14Zm16.93-37.59L227,57.65,250,57.54Z"/><path d="M314.93,53.91V85.07H297.27V3.63h77.59V20.05H314.93V38h40.51v15.9Z"/><path d="M420.57,85.07V20.36h-32.2V3.63h81.95V20.36h-32.1V85.07Z"/><path d="M563.9,68.55V85.07h-77V3.63h77V20.15H504.6V36.46h40V52.14h-40V68.55Z"/><path d="M625.6,85.07H584.68V3.63H625.6a39.67,39.67,0,0,1,29.09,12,39.26,39.26,0,0,1,12,28.77,39.26,39.26,0,0,1-12,28.77A39.67,39.67,0,0,1,625.6,85.07ZM602.34,20.36v48H625.6a22.34,22.34,0,0,0,16.62-7.06,23.11,23.11,0,0,0,7-16.93,22.93,22.93,0,0,0-7-16.93,22.38,22.38,0,0,0-16.62-7.06Z"/><path d="M4.15,207.22V125.78H57.23A24.21,24.21,0,0,1,74.89,133a23.5,23.5,0,0,1,7.37,17.35c0,5.29-2.49,11.53-5.81,14.12A17,17,0,0,1,83.3,172a22.28,22.28,0,0,1,2.81,10.7,23.65,23.65,0,0,1-7.38,17.35,24.14,24.14,0,0,1-17.55,7.17Zm17.66-48.3H56.3a8.63,8.63,0,0,0,0-17.24H21.81Zm0,32.4H59.93a8.87,8.87,0,0,0,8.62-8.62,8.47,8.47,0,0,0-8.62-8.62H21.81Z"/><path d="M123.92,193.19l-7.38,14H97l43.62-85.07,45.08,85.07H166l-7.68-14Zm16.93-37.6-11.43,24.2,23.06-.1Z"/><path d="M225.71,207.22V142.51h-32.2V125.78h81.95v16.73H243.37v64.71Z"/><path d="M309.74,174.81v32.41H292.08V125.78h17.66v32.31h46.84V125.78h17.56v81.44H356.58V174.81Z"/><path d="M458,207.22,433.14,179H414.65v28.26H397V125.78h52.87A26.45,26.45,0,0,1,469,133.57a25.37,25.37,0,0,1,8,18.8,25,25,0,0,1-6.44,17A26,26,0,0,1,454.32,178L480,207.22Zm-43.31-44.56H448c7,0,11.32-4.68,11.32-10.6S455,141.47,448,141.47H414.65Z"/><path d="M538.56,207.63c-12.36,0-23.06-3.95-31.88-11.94s-13.2-17.66-13.2-29.19,4.47-21.19,13.3-29.19,19.42-11.94,31.78-11.94a45.76,45.76,0,0,1,31.79,12c8.82,8,13.29,17.66,13.29,29.08s-4.47,21.19-13.29,29.19S550.92,207.63,538.56,207.63ZM566,166.5c0-6.75-2.7-12.46-8-17.14a30.25,30.25,0,0,0-38.85,0c-5.3,4.68-8,10.39-8,17.14s2.7,12.36,8,17.14a28.68,28.68,0,0,0,19.42,7.06,28.23,28.23,0,0,0,19.32-7.06Q566,176.47,566,166.5Z"/><path d="M643.26,207.63c-12.36,0-23-3.95-31.88-11.94S598.19,178,598.19,166.5s4.46-21.19,13.29-29.19,19.42-11.94,31.78-11.94a45.76,45.76,0,0,1,31.79,12c8.83,8,13.29,17.66,13.29,29.08s-4.46,21.19-13.29,29.19S655.62,207.63,643.26,207.63Zm27.42-41.13c0-6.75-2.7-12.46-8-17.14a30.25,30.25,0,0,0-38.85,0c-5.3,4.68-8,10.39-8,17.14s2.7,12.36,8,17.14a28.68,28.68,0,0,0,19.42,7.06,28.21,28.21,0,0,0,19.32-7.06Q670.68,176.47,670.68,166.5Z"/><path d="M722.21,207.11l-17.25.21,11.12-84.44L759.49,174l43.42-51.1,11,84.34H796.68l-5.82-45.39-31.37,36.35L728,161.83Z"/><path d="M871.78,208.67a63.47,63.47,0,0,1-24.62-5c-7.89-3.42-12.88-7.89-15.06-13.39l13.82-8.42c4.67,6.23,15.37,10.18,26.27,10.18,7.38,0,13.3-1,17.66-3,3-1.56,4.57-3.53,4.47-6.13s-1.46-4.46-4.26-5.71c-2.6-1-8.31-2.08-17.24-3.22-12.05-1.25-20.15-2.7-24.2-4.36-9.66-4.05-14.34-10.49-13.82-19.43,0-9.34,4.68-16.3,14.13-21,6.75-3.22,15.27-4.78,25.65-4.78,18.39,0,30.64,6.13,35.11,17.87l-15.17,8c-3-7-10.17-10.39-21.29-10.39A43.06,43.06,0,0,0,859,142.3c-4.46,1.56-6.75,3.84-6.85,6.75-.11,5.4,3.84,7.27,13.29,8.83,2.08.31,4.78.62,8,.93l6.85.73c8,.94,13.82,2.18,17.45,3.64,9.66,3.94,14.34,10.49,13.82,19.73v1a20.56,20.56,0,0,1-6.13,14.13,33.06,33.06,0,0,1-14.44,8.2A72.48,72.48,0,0,1,871.78,208.67Z"/></svg>